<?xml version="1.0" encoding="utf-8"?>
<!-- Generator: Adobe Illustrator 27.9.0, SVG Export Plug-In . SVG Version: 6.00 Build 0)  -->
<svg version="1.1" id="Layer_1" xmlns="http://www.w3.org/2000/svg" xmlns:xlink="http://www.w3.org/1999/xlink" x="0px" y="0px"
	 viewBox="0 0 279.9 51.8" style="enable-background:new 0 0 279.9 51.8;" xml:space="preserve">
<style type="text/css">
	.st0{fill:#00AEEF;}
	.st1{fill:#0072BC;}
	.st2{fill:#150958;}
</style>
<path d="M18.8,0.5H28l18.8,50.4H37l-4-11.2H13.6l-4,11.2H0L18.8,0.5z M16.5,31.6h13.6l-6.8-18.9L16.5,31.6z"/>
<path d="M53.8,0.9h13.9l12.1,34.7L91.8,0.9h13.7l1.8,50h-9.4l-1.4-39.1L82.6,50.9h-6.3L62.5,11.8l-1.3,39.1H52L53.8,0.9z"/>
<path d="M141.2,0c11.1,0,17.3,4.1,17.3,4.1l-3.7,8.2c0,0-5-3.9-14-3.9c-11,0-17.7,7.5-17.7,17.5c0,10.9,8,17.5,17.6,17.5
	c5.2,0,10.3-1.6,14.6-4.6l3.9,7c0,0-6.4,5.9-19.1,5.9c-14.7,0-26.8-9.3-26.8-25.1C113.2,11.8,124,0,141.2,0z"/>
<path class="st0" d="M276.2,1.8c-9.1,4.7-17.1,7-24.2,7c-6.5,0-11.7-1.8-16.7-3.6s-9.6-3.4-15.4-3.4c-7,0-14.3,2.5-23,7.7l0.5,1.1
	c5.1-1.8,10.5-2.8,16-2.8c8,0,14.8,2.1,21.3,4.1c5.8,1.8,11.2,3.5,16.9,3.5c8.6,0,16.6-4,25.3-12.6L276.2,1.8z"/>
<path class="st1" d="M277.6,13.9c-10.3,5.3-19.2,7.9-27.3,7.9c-7.3,0-13.1-2.1-18.8-4.1s-10.8-3.8-17.3-3.8c-7.8,0-16,2.8-25.9,8.7
	l0.5,1.1c5.8-2.1,11.9-3.2,18.1-3.2c9,0,16.6,2.4,24,4.6c6.5,2,12.6,3.9,19,3.9c9.6,0,18.7-4.5,28.4-14.1L277.6,13.9z"/>
<path class="st2" d="M279.2,27c-11.4,5.9-21.3,8.8-30.2,8.8c-8.1,0-14.5-2.3-20.7-4.6s-11.9-4.3-19.1-4.3c-8.6,0-17.7,3-28.6,9.6
	l0.5,1.1c6.4-2.3,13.2-3.5,20-3.5c10,0,18.4,2.6,26.6,5.2c7.1,2.2,13.8,4.4,20.9,4.4c10.6,0,20.5-5,31.3-15.7L279.2,27z"/>
</svg>
